# xmcd
#
# Track frame offsets:
#	150
#	9131
#	25466
#	43469
#	57458
#	71561
#	84430
#	97553
#	111200
#	127461
#	146884
#	158467
#	174139
#	187571
#	197075
#	211091
#
# Disc length: 2987 seconds
#
# Revision: 0
# Processed by: cddbd v1.5.1PL2 Copyright (c) Steve Scherf et al.
# Submitted via: dBpowerAMP V4.0
#
DISCID=d00ba910
DTITLE=Reuben Chinnery - Unplugged
DYEAR=2006
DGENRE=Blues
TTITLE0=Wings of a Dove
TTITLE1=The Wedding
TTITLE2=Fifteen on Deadman's Chest
TTITLE3=Letter to Una
TTITLE4=Come Back to the Islands
TTITLE5=Sailing in the B.V.I.
TTITLE6=Together with Rum
TTITLE7=Sinf Me a Song
TTITLE8=Donkey Want Water
TTITLE9=New Zealand
TTITLE10=To the Islands
TTITLE11=Pretty Little Baby
TTITLE12=Medley #1
TTITLE13=Government Lumbers
TTITLE14=Medley #2
TTITLE15=Three O'clock
EXTD=
EXTT0=
EXTT1=
EXTT2=
EXTT3=
EXTT4=
EXTT5=
EXTT6=
EXTT7=
EXTT8=
EXTT9=
EXTT10=
EXTT11=
EXTT12=
EXTT13=
EXTT14=
EXTT15=
PLAYORDER=
